HIERARCHY
ROOT Hips
{
	OFFSET 0.000000 0.000000 0.000000
	CHANNELS 6 Xposition Yposition Zposition Xrotation Yrotation Zrotation
	JOINT LeftUpLeg_virtual
	{
		OFFSET 0.000000 0.000000 0.000000
		CHANNELS 3 Xrotation Yrotation Zrotation
		JOINT LeftUpLeg
		{
			OFFSET 10.205400 -3.823500 0.155100
			CHANNELS 3 Xrotation Yrotation Zrotation
			JOINT LeftLeg
			{
				OFFSET 0.708757 -12.982077 0.567790
				CHANNELS 3 Xrotation Yrotation Zrotation
				JOINT LeftFoot
				{
					OFFSET -0.708756 -10.717838 -2.184338
					CHANNELS 3 Xrotation Yrotation Zrotation
					JOINT LeftToeBase
					{
						OFFSET 0.108149 -7.191104 7.560241
						CHANNELS 3 Xrotation Yrotation Zrotation
						JOINT LeftToe_End
						{
							OFFSET 0.070230 0.081724 4.490308
							CHANNELS 3 Xrotation Yrotation Zrotation
							End Site
							{
								OFFSET 0 0 0
							}
						}
					}
				}
			}
		}
	}
	JOINT RightUpLeg_virtual
	{
		OFFSET 0.000000 0.000000 0.000000
		CHANNELS 3 Xrotation Yrotation Zrotation
		JOINT RightUpLeg
		{
			OFFSET -10.205400 -3.823500 0.005500
			CHANNELS 3 Xrotation Yrotation Zrotation
			JOINT RightLeg
			{
				OFFSET -0.708756 -12.982134 0.610632
				CHANNELS 3 Xrotation Yrotation Zrotation
				JOINT RightFoot
				{
					OFFSET 0.708754 -10.717769 -1.945823
					CHANNELS 3 Xrotation Yrotation Zrotation
					JOINT RightToeBase
					{
						OFFSET -0.108140 -7.191069 7.372968
						CHANNELS 3 Xrotation Yrotation Zrotation
						JOINT RightToe_End
						{
							OFFSET -0.070227 0.081735 4.479403
							CHANNELS 3 Xrotation Yrotation Zrotation
							End Site
							{
								OFFSET 0 0 0
							}
						}
					}
				}
			}
		}
	}
	JOINT Spine_virtual
	{
		OFFSET 0.000000 0.000000 0.000000
		CHANNELS 3 Xrotation Yrotation Zrotation
		JOINT Spine
		{
			OFFSET 0.000000 6.876099 0.125700
			CHANNELS 3 Xrotation Yrotation Zrotation
			JOINT Spine1
			{
				OFFSET 0.000000 5.730043 0.104720
				CHANNELS 3 Xrotation Yrotation Zrotation
				JOINT Spine1_split
				{
					OFFSET 0.000000 5.730043 0.104720
					CHANNELS 3 Xrotation Yrotation Zrotation
					JOINT Spine2
					{
						OFFSET 0.000000 5.730043 0.104720
						CHANNELS 3 Xrotation Yrotation Zrotation
						JOINT Neck_virtual
						{
							OFFSET 0.000000 0.000000 0.000000
							CHANNELS 3 Xrotation Yrotation Zrotation
							JOINT Neck
							{
								OFFSET 0.000000 10.314075 0.188496
								CHANNELS 3 Xrotation Yrotation Zrotation
								JOINT Head
								{
									OFFSET 0.000000 7.643700 -2.377400
									CHANNELS 3 Xrotation Yrotation Zrotation
									JOINT HeadTop_End
									{
										OFFSET 0.000000 43.788605 -13.619600
										CHANNELS 3 Xrotation Yrotation Zrotation
										End Site
										{
											OFFSET 0 0 0
										}
									}
								}
							}
						}
						JOINT LeftShoulder_virtual
						{
							OFFSET 0.000000 0.000000 0.000000
							CHANNELS 3 Xrotation Yrotation Zrotation
							JOINT LeftShoulder
							{
								OFFSET 2.196100 4.412489 0.087492
								CHANNELS 3 Xrotation Yrotation Zrotation
								JOINT LeftShoulder_split
								{
									OFFSET 2.196100 4.412489 0.087492
									CHANNELS 3 Xrotation Yrotation Zrotation
									JOINT LeftArm
									{
										OFFSET 8.771219 -2.981674 -0.026999
										CHANNELS 3 Xrotation Yrotation Zrotation
										JOINT LeftForeArm
										{
											OFFSET 8.512804 0.000000 -0.000000
											CHANNELS 3 Xrotation Yrotation Zrotation
											JOINT LeftHand
											{
												OFFSET 18.484802 0.000000 -0.000000
												CHANNELS 3 Xrotation Yrotation Zrotation
												End Site
												{
													OFFSET 0 0 0
												}
											}
										}
									}
								}
							}
						}
						JOINT RightShoulder_virtual
						{
							OFFSET 0.000000 0.000000 0.000000
							CHANNELS 3 Xrotation Yrotation Zrotation
							JOINT RightShoulder
							{
								OFFSET -2.196100 4.412496 0.070690
								CHANNELS 3 Xrotation Yrotation Zrotation
								JOINT RightShoulder_split
								{
									OFFSET -2.196100 4.412496 0.070690
									CHANNELS 3 Xrotation Yrotation Zrotation
									JOINT RightArm
									{
										OFFSET -8.771282 -2.981682 -0.094208
										CHANNELS 3 Xrotation Yrotation Zrotation
										JOINT RightForeArm
										{
											OFFSET -8.494598 0.000000 0.000000
											CHANNELS 3 Xrotation Yrotation Zrotation
											JOINT RightHand
											{
												OFFSET -18.483803 0.000000 0.000001
												CHANNELS 3 Xrotation Yrotation Zrotation
												End Site
												{
													OFFSET 0 0 0
												}
											}
										}
									}
								}
							}
						}
					}
				}
			}
		}
	}
}
MOTION
Frames: 8
Frame Time: 0.03333333
0.402313 33.016632 -0.258446 0.000000 0.000000 0.000000 5.269444 -28.590765 1.682413 -14.476250 17.607775 11.824831 23.697565 12.798095 -2.761101 -9.535906 -3.342623 -6.875985 0.351131 0.403357 0.487963 0.000000 0.000000 0.000000 8.797356 -28.174387 2.490411 4.243965 3.951010 -11.727828 8.099466 15.467303 6.235212 -18.683940 -5.037401 6.931156 2.358371 0.934015 -0.847985 0.000000 0.000000 0.000000 4.373073 -29.916939 -0.625323 7.308349 1.541283 -2.183676 0.258097 0.904191 2.775074 2.536647 2.024852 -0.214250 0.000000 0.000000 0.000000 0.827914 0.669135 4.100969 -2.364833 23.757334 -9.669366 -1.893124 10.821961 6.371539 0.000000 0.000000 0.000000 0.005075 1.027977 2.875043 0.640104 -13.556870 1.691958 -2.432842 -0.903590 -3.093709 -56.339293 -1.337672 -34.807269 12.015832 -61.898931 14.948197 0.000000 0.000000 0.000000 1.250901 1.107685 3.562371 4.633555 3.691835 8.588364 1.484353 2.292009 -3.630591 -1.181295 -11.082105 65.288617 15.339599 32.287192 -3.432183 0.000000 0.000000 0.000000 
0.550049 32.957790 -0.530199 0.000000 0.000000 0.000000 5.342370 -28.167504 2.216523 -14.194906 16.885698 11.759334 23.523078 12.010728 -2.907121 -9.464579 -3.631113 -6.608094 0.907630 0.361247 0.412689 0.000000 0.000000 0.000000 8.381446 -27.266740 2.736911 3.486722 2.975192 -12.622089 8.305830 15.335018 6.091243 -18.863652 -4.857407 5.735641 4.680524 0.886588 -0.610068 0.000000 0.000000 0.000000 4.217069 -30.310348 -0.201333 7.362923 1.286401 -1.875581 0.214682 0.655570 2.685958 1.427158 3.191519 -0.415290 0.000000 0.000000 0.000000 1.161629 0.370152 3.954853 -1.991111 23.442632 -9.507138 -2.558243 11.446199 5.670860 0.000000 0.000000 0.000000 -0.091852 0.859975 2.832520 0.408478 -12.556946 1.365751 -0.914883 -2.006559 -2.556137 -56.942150 -1.609678 -35.312365 12.937164 -62.531461 15.191736 0.000000 0.000000 0.000000 1.033927 0.749197 3.421091 4.303442 3.523707 7.829186 1.171715 1.504329 -2.729214 -1.499914 -10.215350 66.191377 14.540759 30.426239 -2.753458 0.000000 0.000000 0.000000 
0.683137 32.910538 -0.746098 0.000000 0.000000 0.000000 5.510820 -27.756951 2.871813 -14.159431 16.407168 12.050989 22.668209 11.603311 -3.114561 -9.683247 -3.308552 -5.880653 1.486743 0.273161 0.152224 0.000000 0.000000 0.000000 7.905556 -26.082279 3.023215 1.707352 1.850632 -14.079186 9.551426 15.626537 6.014208 -18.071827 -4.502091 5.586411 4.853878 0.757926 -0.479748 0.000000 0.000000 0.000000 4.327743 -30.630909 0.416661 7.748481 0.977602 -0.931879 0.208941 0.351796 2.098375 0.745359 3.911252 -0.302167 0.000000 0.000000 0.000000 1.615688 0.043451 3.299322 -2.210244 22.715408 -9.933426 -4.157446 12.488500 4.469718 0.000000 0.000000 0.000000 -0.032111 0.714726 2.347180 0.135911 -11.120761 0.522424 0.447062 -3.030083 -1.484117 -56.664199 -1.425459 -35.560431 11.245481 -63.274954 12.958017 0.000000 0.000000 0.000000 0.840421 0.364551 2.780830 3.903958 3.588087 5.866457 0.529868 0.824187 -1.686190 -1.264971 -10.180007 68.518702 12.996886 28.039970 -1.475329 0.000000 0.000000 0.000000 
0.903020 32.863117 -0.909813 0.000000 0.000000 0.000000 5.715739 -27.754262 3.523415 -14.594840 15.950075 12.546722 21.869419 11.328233 -3.397590 -10.255446 -2.703160 -5.271858 1.634384 0.154402 -0.120015 0.000000 0.000000 0.000000 7.452105 -25.370268 3.395404 -0.996486 0.891526 -15.804694 11.620191 16.232752 5.949969 -16.963287 -4.013300 5.883428 3.478565 0.522497 -0.312888 0.000000 0.000000 0.000000 4.798137 -31.189547 1.213781 8.495408 0.678249 0.438619 0.257538 0.059257 1.128694 0.897667 4.151328 0.221270 0.000000 0.000000 0.000000 2.020606 -0.218208 2.221779 -2.822143 21.486010 -10.912014 -6.347630 13.676851 2.995934 0.000000 0.000000 0.000000 0.208892 0.583219 1.483880 -0.133101 -9.577659 -0.647417 1.611303 -3.662476 -0.357580 -55.747642 -0.378444 -34.814120 6.583197 -63.897622 8.030786 0.000000 0.000000 0.000000 0.718129 0.044282 1.730050 3.581121 3.684072 2.880761 -0.051860 0.183469 -0.740788 -0.021738 -11.164871 72.046195 11.089929 26.704359 0.000133 0.000000 0.000000 0.000000 
1.253823 32.795429 -1.015482 0.000000 0.000000 0.000000 5.885960 -28.459742 4.083283 -15.550908 15.048763 12.962288 22.091345 10.775230 -3.752252 -11.167744 -2.325411 -5.457823 1.367551 0.011356 -0.261750 0.000000 0.000000 0.000000 7.090680 -26.023043 3.853200 -4.454450 0.289723 -17.227875 14.063083 16.907788 5.929348 -15.986222 -3.375955 5.966201 2.394500 0.165647 -0.044113 0.000000 0.000000 0.000000 5.629698 -32.378976 2.226378 9.660047 0.450266 1.924402 0.310243 -0.148243 -0.053894 1.057677 3.980766 0.577222 0.000000 0.000000 0.000000 2.297535 -0.338067 0.939184 -3.544430 19.653984 -12.198982 -8.825322 14.632640 1.469911 0.000000 0.000000 0.000000 0.555164 0.496622 0.404229 -0.345944 -8.410534 -1.582944 2.730599 -3.804833 0.563538 -54.698839 1.696279 -32.761091 -0.742126 -64.370216 0.644724 0.000000 0.000000 0.000000 0.632939 -0.153961 0.459534 3.398631 3.747333 -0.855411 -0.258489 -0.626854 0.148254 2.849787 -12.611869 76.231468 9.197007 27.195720 1.329713 0.000000 0.000000 0.000000 
1.761628 32.655949 -0.995506 0.000000 0.000000 0.000000 6.064735 -30.276145 4.516814 -17.148506 13.217207 12.987909 23.988094 9.820084 -4.150405 -12.879317 -2.489852 -6.389760 1.116230 -0.175298 -0.200135 0.000000 0.000000 0.000000 6.875570 -28.664426 4.402459 -8.663536 0.210729 -17.928369 16.889463 17.674136 5.908610 -14.921042 -2.469407 6.065265 2.257990 -0.272455 0.276668 0.000000 0.000000 0.000000 6.795272 -34.744168 3.400577 11.305733 0.340606 3.200842 0.320497 -0.190490 -1.168849 0.548151 3.715598 0.819204 0.000000 0.000000 0.000000 2.419520 -0.311380 -0.290007 -4.114266 17.049551 -13.443637 -11.324192 14.742321 0.174769 0.000000 0.000000 0.000000 0.910664 0.464875 -0.618854 -0.458615 -7.761313 -1.866015 3.743751 -3.585774 1.181988 -54.606007 4.460781 -29.746515 -10.006040 -65.049561 -8.634723 0.000000 0.000000 0.000000 0.554599 -0.229924 -0.735979 3.376100 3.816626 -4.898395 -0.255676 -1.523242 0.803852 7.426093 -13.518198 80.311393 7.679107 29.618702 2.241543 0.000000 0.000000 0.000000 
2.441479 32.434200 -0.909521 0.000000 0.000000 0.000000 6.314036 -33.278772 4.808091 -19.268134 10.193425 12.512251 27.350350 8.538379 -4.407254 -15.895701 -3.148276 -7.722171 1.073930 -0.384227 0.071542 0.000000 0.000000 0.000000 7.062673 -33.307079 5.058635 -13.382225 0.840764 -17.575166 19.770309 18.810281 5.728758 -13.329603 -1.089689 7.132471 1.991249 -0.720648 0.381986 0.000000 0.000000 0.000000 8.206103 -38.342674 4.685293 13.433501 0.364297 4.041009 0.242431 -0.055810 -1.901327 -0.191569 3.479841 0.671607 0.000000 0.000000 0.000000 2.356426 -0.127687 -1.190406 -4.332082 13.597960 -14.239983 -13.746763 13.494138 -0.750002 0.000000 0.000000 0.000000 1.136190 0.512494 -1.278932 -0.476328 -7.669758 -1.338224 4.620883 -2.807332 1.414484 -56.130126 7.100239 -26.579804 -20.919135 -66.198392 -19.664159 0.000000 0.000000 0.000000 0.476105 -0.164191 -1.544511 3.516019 4.126947 -8.712138 -0.332872 -2.418526 1.232253 12.892548 -13.043001 83.171350 6.981696 32.923964 2.315473 0.000000 0.000000 0.000000 
3.240273 32.133713 -0.815460 0.000000 0.000000 0.000000 6.723352 -37.635100 5.006599 -21.566898 6.093314 11.542533 31.557182 7.161339 -4.393961 -19.811990 -3.905977 -9.279692 1.128075 -0.555450 0.423284 0.000000 0.000000 0.000000 7.710889 -39.411564 5.701377 -18.162052 2.081416 -15.878921 22.079910 20.353993 5.254570 -11.178859 0.914806 9.686983 0.787897 -1.129781 0.094031 0.000000 0.000000 0.000000 9.804865 -43.054326 5.929463 15.981982 0.506753 4.285836 0.018504 0.195161 -2.022843 -0.446202 3.061001 0.143228 0.000000 0.000000 0.000000 2.112131 0.167695 -1.491788 -4.103004 9.176082 -14.146814 -15.942647 10.524061 -1.280025 0.000000 0.000000 0.000000 1.173357 0.642199 -1.342545 -0.347679 -8.155013 0.084563 5.569603 -1.699145 1.416192 -59.416908 8.775127 -24.093470 -32.949229 -67.616107 -32.131641 0.000000 0.000000 0.000000 0.387423 0.026599 -1.700663 3.765467 4.869479 -11.771812 -0.874844 -2.737562 1.505371 18.069016 -10.701239 83.671689 7.550037 35.565977 1.079363 0.000000 0.000000 0.000000 
